<svg xmlns="http://www.w3.org/2000/svg" viewBox="0 0 241.35 154.83"><defs><style>.cls-1{fill:#29aeb2;}.cls-2{font-size:54.43px;fill:#fff;font-family:FranklinGothic-HeavyItalic, Franklin Gothic Heavy;font-weight:800;font-style:italic;}.cls-3{letter-spacing:-0.03em;}</style></defs><g id="Layer_2" data-name="Layer 2"><g id="Layer_1-2" data-name="Layer 1"><path class="cls-1" d="M117.69,50.2s-4.85,27.77-8.15,38c-4.58,14.2-14,24-27.85,29.42-10.61,4.18-21.78,5.57-33.13,5.15-9.79-.36-19.29-2.3-28-6.82-5.28-2.73-10.29-6-14-10.76C1.2,98.48-.67,90.77.21,82.27Q1.61,68.62,3.26,55c.1-.83.48-1,1.21-1q16.68.06,33.36.08c1.08,0,1.14.46,1,1.35a125.58,125.58,0,0,0-2,15.35c-.22,3.56-.5,7.15.24,10.64,1.25,5.88,5,9.62,10.76,11.19,6.8,1.86,13,.8,18.24-4.18a33.8,33.8,0,0,0,6.18-8.25c3.91-6.93,6.21-14.45,8-22.16,2-8.74,8.12-44.33,9.6-53.29.12-.71.32-1.41.45-2.12C90.77,0,90.76,0,93.36,0c10.86.06,36.19.36,38,.38a1.44,1.44,0,0,1,1.57,1.36q2.19,11.4,4.38,22.79c1.29,6.63,4.82,22.78,4.82,22.78s12.95-24.07,18.52-35.22c1.75-3.5,3.51-7,5.19-10.52A1.83,1.83,0,0,1,167.75.38q14.12,0,28.24,0c1.11,0,1.52.37,1.57,1.52.29,6,1.83,70.76,2,74,.07,1.16-.22,1.65-1.51,1.64q-11.4-.09-22.81,0c-1.27,0-1.4-.49-1.4-1.55,0-12.57.25-38.82-.38-39.43C172,39.26,153.15,73,145.42,87.42c-1.35,2.51-1.1,3.46-3.9,3.27-3.81-.27-9.29-.11-13.12,0-1.27,0-1.77-.4-2-1.7-1.19-5.75-2.52-11.48-3.8-17.22C121.44,66.69,118.26,52.63,117.69,50.2Z"/><path class="cls-1" d="M10.8,21c-1.34,0-1.57-.43-1.29-1.65,1-4.32,1.9-8.66,2.79-13C12.49,5.4,12.85,5,13.82,5q17,0,34,0c1.08,0,1.22.47,1,1.34-1,4.54-1.95,9.08-2.88,13.63-.23,1.1-1,1-1.79,1C38.6,21,16.38,20.91,10.8,21Z"/><path class="cls-1" d="M40.48,40.63c1.93,0,1.91,0,1.42,1.81l-1.24,5.1c-.29,1.2-.3,1.17-1.73,1.17H5.15c-1.2,0-1.2,0-1-1.27L5,42.28c.27-1.68.3-1.68,2-1.68Z"/><path class="cls-1" d="M8,36C6.32,36,6.7,34.38,6.7,34.38l.76-3.46c.12-1.1.68-1.33,1.65-1.32q16.76,0,33.52,0c1.28,0,1.5.42,1.14,1.58L43,34.8c-.09,1.21-.68,1.39-1.71,1.38C35.78,36.15,13.54,35.89,8,36Z"/><path class="cls-1" d="M175.82,85.21c-1.94,0-1.94,0-1.94-2,0-1.9,0-1.9,1.89-1.87l22.26,0c1.77,0,1.77,0,1.77,2s0,1.92-1.7,1.92C194.38,85.21,179.33,85.22,175.82,85.21Z"/><path class="cls-1" d="M198,88.23c2,0,2,0,2,1.68s0,1.7-2,1.69c-6.61,0-19.57,0-19.57,0h-2.58c-1.89,0-1.82,0-1.81-1.84,0-1.26-.08-1.52,1.85-1.51Z"/><text class="cls-2" transform="translate(133.13 136.84)">D<tspan class="cls-3" x="37.31" y="0">R</tspan><tspan x="71.7" y="0">Y</tspan></text></g></g></svg>